<?xml version="1.0" encoding="utf-8"?>
<!-- Svg Vector Icons : http://www.onlinewebfonts.com/icon -->
<!DOCTYPE svg PUBLIC "-//W3C//DTD SVG 1.1//EN" "http://www.w3.org/Graphics/SVG/1.1/DTD/svg11.dtd">
<svg version="1.1" xmlns="http://www.w3.org/2000/svg" xmlns:xlink="http://www.w3.org/1999/xlink" x="0px" y="0px" viewBox="0 0 1000 1000" enable-background="new 0 0 1000 1000" xml:space="preserve">
<metadata> Svg Vector Icons : http://www.onlinewebfonts.com/icon </metadata>
<g><g><g><path d="M657.6,779.7c0-69,38-128.7,93.9-161c-34.9-11.2-72.5-20-112.1-26.2c84.9-47.1,142.5-137.6,142.5-241.6c0-152.6-123.7-276.2-276.3-276.2S229.3,198.2,229.3,350.8c0,104,57.6,194.5,142.5,241.6C163.2,625,10,731.6,10,858.2h665.5C664.3,834.2,657.6,807.9,657.6,779.7z"/></g><path d="M844.3,634c-80.4,0-145.7,65.2-145.7,145.7c0,80.5,65.3,145.7,145.7,145.7c80.5,0,145.7-65.2,145.7-145.7C989.9,699.1,924.8,634,844.3,634z M939.4,805.5h-69.2v69.3h-51.7v-69.3h-69.3v-51.8h69.3v-69.3h51.7v69.3h69.2V805.5z"/></g><g></g><g></g><g></g><g></g><g></g><g></g><g></g><g></g><g></g><g></g><g></g><g></g><g></g><g></g><g></g></g>
</svg>