<svg xmlns="http://www.w3.org/2000/svg" xmlns:xlink="http://www.w3.org/1999/xlink" version="1.1" width="18" height="18" enable-background="new 0 0 20 20" xml:space="preserve" style=""><rect id="backgroundrect" width="100%" height="100%" x="0" y="0" fill="none" stroke="none" class="" style=""/>









<g class="currentLayer" style=""><title>Layer 1</title><path fill="none" d="M5.662000074386597,8.850999999999999 c-0.52,2.9610000000000003 -1.469,4.764 -2.2,5.774 c0.11500000000000005,0.12000000000000002 0.21000000000000008,0.257 0.29300000000000015,0.402 c2.055,-0.451 3.736,-1.211 5.095,-2.105 C7.711000074386598,12.024999999999999 6.576000074386597,10.725999999999999 5.662000074386597,8.850999999999999 z" id="svg_1" class=""/><path fill="#ffffff" d="M14.663010545112755,12.24489785365161 c-0.8437550530433667,0 -1.5685472526550295,0.4868916494846348 -1.9419584314823157,1.1936698503494263 c-0.16742920112609894,0.31636738514900253 -0.2720724518299105,0.675365836381913 -0.2720724518299105,1.0601673012971884 c0,0.3747046334743506 0.09803420329093954,0.7224843831062326 0.2555498332977295,1.0321205472946167 c0.3690051472187048,0.7236062532663357 1.102609410047531,1.2228384745121004 1.9573795421123505,1.2228384745121004 c1.2237752792835235,0 2.2162338991165162,-1.008561273932458 2.2162338991165162,-2.254959021806717 C16.879244444229272,13.25458099774417 15.887887332298426,12.24489785365161 14.663010545112755,12.24489785365161 z" id="svg_6" class="" stroke="#1a1aeb" stroke-opacity="1" fill-opacity="1"/><path fill="#ffffff" d="M9.132043370428475,5.44897940362125 c-1.5591770778894425,0 -2.8259205830097196,1.3188801612854033 -2.8259205830097196,2.9487754440307614 c0,1.1061575546264664 0.5918967987298976,2.0582746009826662 1.4551382106542585,2.5644076995849607 c0.4077198851108562,0.23766249847412182 0.87027106511593,0.3843677444458012 1.370782372355461,0.3843677444458012 c0.4541155961751946,0 0.8773007183074972,-0.1217653541564945 1.2583079212903991,-0.3198174362182627 C11.318265513005645,10.541118491298255 11.960775814714822,9.55232513344913 11.960775814714822,8.39775484765201 C11.960775814714822,6.769326617366369 10.695438240232862,5.44897940362125 9.132043370428475,5.44897940362125 z" id="svg_7" class="" fill-opacity="1" stroke="#000000" stroke-opacity="1"/><path fill="#ffffff" d="M15.254939061746677,0.714285962110574 c-1.0639823265794153,0 -1.9284080039897424,0.8807443319490875 -1.9284080039897424,1.969183656526875 c0,0.7386887945379432 0.40391033317397185,1.374509786122988 0.9929862110096435,1.7125039958253616 c0.27822802047613293,0.15871032455589804 0.593872912671469,0.2566796607015135 0.9354217929800991,0.2566796607015135 c0.30988845039238216,0 0.5986699475072651,-0.08131454900086128 0.8586692356073742,-0.213573152797443 C16.74681689567904,4.114801619724895 17.185265879670737,3.454488294103443 17.185265879670737,2.6834696186374467 C17.185265879670737,1.5960099874211142 16.32179960922757,0.714285962110574 15.254939061746677,0.714285962110574 z" class="" fill-opacity="1" stroke="#0bd50b" stroke-opacity="1" id="svg_17"/><path fill="#ffffff" d="M9.132043370428477,5.44897940362125 c-1.5591770778894425,0 -2.8259205830097196,1.3188801612854038 -2.8259205830097196,2.9487754440307614 c0,1.1061575546264664 0.5918967987298976,2.0582746009826662 1.4551382106542585,2.5644076995849607 c0.40771988511085644,0.23766249847412194 0.87027106511593,0.38436774444580135 1.370782372355461,0.38436774444580135 c0.4541155961751946,0 0.8773007183074975,-0.12176535415649453 1.2583079212903991,-0.31981743621826286 C11.318265513005642,10.541118491298255 11.960775814714822,9.55232513344913 11.960775814714822,8.39775484765201 C11.960775814714822,6.769326617366369 10.69543824023286,5.44897940362125 9.132043370428477,5.44897940362125 z" class="" fill-opacity="1" stroke="#eb1a1a" stroke-opacity="1" id="svg_16"/><path fill="#ffffff" d="M2.9784539822730896,0.6821109886174636 c-1.2981623698279066,0 -2.3528461346745626,1.0706746160053098 -2.3528461346745626,2.393833123660365 c0,0.8979851618109039 0.4928100610437773,1.6709193395499962 1.2115401738249616,2.0818011443573714 c0.33946536271424155,0.19293580399650764 0.7245829638624668,0.3120319793029933 1.1413059608496017,0.3120319793029933 c0.3780941798506897,0 0.7304358149437472,-0.09884982550438352 1.0476603435491225,-0.2596296621681398 C4.79869066855117,4.8159392335055875 5.3336412573801635,4.013231011939869 5.3336412573801635,3.0759441122778255 C5.3336412573801635,1.753976566375834 4.280128062749765,0.6821109886174636 2.9784539822730896,0.6821109886174636 z" class="" fill-opacity="1" stroke="#000000" stroke-opacity="1" id="svg_10"/><path fill="#ffffff" d="M2.685701028900144,8.369407841003017 c-0.8490850978144115,0 -1.5389188878331512,0.6918845279591552 -1.5389188878331512,1.5469275875393755 c0,0.5802902492560649 0.3223307720287352,1.079770848416788 0.7924283825409508,1.3452882701586208 c0.22203307336896305,0.124677745861383 0.47392576694961425,0.20163931738075488 0.7464905052922004,0.20163931738075488 c0.24729890585577613,0 0.47775392338701006,-0.06387810436107891 0.6852400022938673,-0.16777622591223135 C3.8762576809302667,11.040743988440415 4.226151179308254,10.522022996399846 4.226151179308254,9.91633542854239 C4.226151179308254,9.062061984677362 3.537083020576994,8.369407841003017 2.685701028900144,8.369407841003017 z" class="" fill-opacity="1" stroke="#000000" stroke-opacity="1" id="svg_25"/><path fill="#ffffff" d="M6.6172169930058615,14.448423444016859 c-0.05604620957374582,-0.0985637078285219 -0.12019548559188857,-0.1903764767646792 -0.19784987235069298,-0.27138774347305306 c-0.2471435265541079,-0.2592360534667971 -0.593549617052079,-0.42193368077278187 -0.9804710397720334,-0.42193368077278187 c-0.1053398637771608,0 -0.20595293879508994,0.014176971673965477 -0.30454024720191963,0.03713016390800481 c-0.602327939033509,0.13906934118270883 -1.0527233822345734,0.6757689831256867 -1.0527233822345734,1.3198085534572601 c0,0.7493542170524597 0.6077299833297732,1.356938717365265 1.3572636294364928,1.356938717365265 c0.5766682286262517,0 1.066228492975235,-0.35982504296302803 1.2634031097888947,-0.8668205537796022 C6.761721677930941,15.449587681754512 6.797510221393694,15.284864772780818 6.797510221393694,15.112040737136287 C6.797510221393694,14.869682030900401 6.7286341566163195,14.645550859673902 6.6172169930058615,14.448423444016859 z" id="svg_8" class="" fill-opacity="1" stroke="#ad1fad" stroke-opacity="1"/><path fill="#b6b6b6" fill-opacity="1" stroke="#919191" stroke-opacity="1" stroke-width="1" stroke-dasharray="none" stroke-linejoin="miter" stroke-linecap="butt" stroke-dashoffset="" fill-rule="nonzero" opacity="1" marker-start="" marker-mid="" marker-end="" d="M11.751761641274413,5.988233313058126 L13.426100256808606,4.433490312919231 " id="svg_11" class=""/><path fill="#b6b6b6" fill-opacity="1" stroke="#919191" stroke-opacity="1" stroke-width="1" stroke-dasharray="none" stroke-linejoin="miter" stroke-linecap="butt" stroke-dashoffset="" fill-rule="nonzero" opacity="1" marker-start="" marker-mid="" marker-end="" d="M11.493601628938853,12.317350569613307 L12.83905034297334,11.06800533515271 " class="" id="svg_19" transform="rotate(88.68488311767578 12.166325569152832,11.69267749786377) "/><path fill="#b6b6b6" fill-opacity="1" stroke="#919191" stroke-opacity="1" stroke-width="1" stroke-dasharray="none" stroke-linejoin="miter" stroke-linecap="butt" stroke-dashoffset="" fill-rule="nonzero" opacity="1" marker-start="" marker-mid="" marker-end="" d="M5.176688290385696,6.192562832074835 L6.455908184080176,5.00471578792996 " class="" transform="rotate(88.68488311767578 5.816298484802245,5.598639011383057) " id="svg_24"/><path fill="#b6b6b6" fill-opacity="1" stroke="#919191" stroke-opacity="1" stroke-width="1" stroke-dasharray="none" stroke-linejoin="miter" stroke-linecap="butt" stroke-dashoffset="" fill-rule="nonzero" opacity="1" marker-start="" marker-mid="" marker-end="" d="M2.1660745049331256,7.500620459618153 L3.403401701552381,6.35167377704313 " class="" transform="rotate(133.52215576171875 2.7847380638122563,6.9261474609375) " id="svg_26"/><path fill="#b6b6b6" fill-opacity="1" stroke="#919191" stroke-opacity="1" stroke-width="1" stroke-dasharray="none" stroke-linejoin="miter" stroke-linecap="butt" stroke-dashoffset="" fill-rule="nonzero" opacity="1" marker-start="" marker-mid="" marker-end="" d="M5.983888383355624,13.135040506990272 L7.726566478870966,11.734097294144819 " class="" id="svg_18" transform="rotate(-23.006162643432617 6.855227470397944,12.434568405151365) "/><polyline fill="none" stroke="#919191" stroke-dashoffset="" fill-rule="nonzero" marker-start="" marker-mid="" marker-end="" id="svg_20" points="8.348533346013795,7.53420144001557 8.348533346013795,7.53420144001557 " style="color: rgb(0, 0, 0);"/><polyline fill="none" stroke="#000000" stroke-dashoffset="" fill-rule="nonzero" marker-start="" marker-mid="" marker-end="" id="svg_23" points="8.869705963732308,8.771986407097033 8.869705963732308,8.771986407097033 8.869705963732308,8.771986407097033 " style="color: rgb(0, 0, 0);"/><path fill="#000000" fill-opacity="1" stroke="#000000" stroke-opacity="1" stroke-width="1" stroke-dasharray="none" stroke-linejoin="miter" stroke-linecap="butt" stroke-dashoffset="" fill-rule="nonzero" opacity="1" marker-start="" marker-mid="" marker-end="" id="svg_39" d="M-17.579804385482102,16.133549632370993 " style="color: rgb(173, 31, 173);"/></g></svg>